<?xml version="1.0" encoding="UTF-8"?>
<svg width="40px" height="40px" viewBox="0 0 40 40" version="1.1" xmlns="http://www.w3.org/2000/svg" xmlns:xlink="http://www.w3.org/1999/xlink">
    <title>Group 8</title>
    <g id="Final" stroke="none" stroke-width="1" fill="none" fill-rule="evenodd">
        <g id="TalkinFunny-2021-1400" transform="translate(-1320.000000, -232.000000)">
            <g id="Group-8" transform="translate(1320.000000, 232.000000)">
                <circle id="Oval" fill="#28ABE2" cx="20" cy="20" r="20"></circle>
                <g id="2-Icon/Social/Facebook" transform="translate(0.000000, 1.000000)" fill="#000000" fill-rule="nonzero">
                    <path d="M19,-5.32907052e-14 C29.4931818,-5.32907052e-14 38,8.50681818 38,19 C38,29.4931818 29.4931818,38 19,38 C8.50681818,38 1.42108547e-14,29.4931818 1.42108547e-14,19 C1.42108547e-14,8.50681818 8.50681818,-5.32907052e-14 19,-5.32907052e-14 Z M19,3.45454545 C10.4154545,3.45454545 3.45454545,10.4137273 3.45454545,19 C3.45454545,27.5862727 10.4154545,34.5454545 19,34.5454545 C27.5862727,34.5454545 34.5454545,27.5862727 34.5454545,19 C34.5454545,10.4137273 27.5862727,3.45454545 19,3.45454545 Z M21.3390727,9.45560909 C22.5792545,9.45560909 23.6467091,9.54715455 23.9576182,9.58860909 L23.9576182,12.6234273 L22.1595273,12.6251545 C20.7518,12.6251545 20.4788909,13.2953364 20.4788909,14.2764273 L20.4788909,16.4441545 L23.8384364,16.4441545 L23.4014364,19.8365182 L20.4788909,19.8365182 L20.4788909,28.5454273 L16.9742545,28.5454273 L16.9742545,19.8365182 L14.0430727,19.8365182 L14.0430727,16.4441545 L16.9742545,16.4441545 L16.9742545,13.9413364 C16.9742545,11.0360636 18.7481636,9.45560909 21.3390727,9.45560909 Z" id="Facebook"></path>
                </g>
            </g>
        </g>
    </g>
</svg>