<svg xmlns="http://www.w3.org/2000/svg" width="99" height="112" viewBox="0 0 99 112">
    <g fill="none" fill-rule="evenodd">
        <path fill="#F8931D" d="M66.165 50.752L46.278 61.207 50.076 39.062 33.987 23.379 56.222 20.148 66.165 0 76.109 20.148 98.344 23.379 82.255 39.062 86.053 61.207z"/>
        <path fill="#28ABE2" d="M16.917 71.992L6.974 77.22 8.873 66.148 0.828 58.306 11.945 56.691 16.917 46.617 21.889 56.691 33.007 58.306 24.962 66.148 26.861 77.22z"/>
        <path fill="#EF4037" d="M63.534 104.323L49.171 111.874 51.914 95.881 40.294 84.554 56.352 82.221 63.534 67.669 70.715 82.221 86.774 84.554 75.154 95.881 77.897 111.874z"/>
    </g>
</svg>
