<?xml version="1.0" encoding="UTF-8"?>
<svg width="40px" height="40px" viewBox="0 0 40 40" version="1.1" xmlns="http://www.w3.org/2000/svg" xmlns:xlink="http://www.w3.org/1999/xlink">
    <title>Group 10</title>
    <g id="Final" stroke="none" stroke-width="1" fill="none" fill-rule="evenodd">
        <g id="TalkinFunny-2021-1400" transform="translate(-1176.000000, -232.000000)">
            <g id="Group-10" transform="translate(1176.000000, 232.000000)">
                <circle id="Oval" fill="#F8931D" cx="20" cy="20" r="20"></circle>
                <g id="2-Icon/Social/Instagram" transform="translate(0.000000, 1.000000)" fill="#000000" fill-rule="nonzero">
                    <path d="M19,0 C29.4931818,0 38,8.50681818 38,19 C38,29.4931818 29.4931818,38 19,38 C8.50681818,38 0,29.4931818 0,19 C0,8.50681818 8.50681818,0 19,0 Z M19,3.45454545 C10.4154545,3.45454545 3.45454545,10.4137273 3.45454545,19 C3.45454545,27.5862727 10.4154545,34.5454545 19,34.5454545 C27.5862727,34.5454545 34.5454545,27.5862727 34.5454545,19 C34.5454545,10.4137273 27.5862727,3.45454545 19,3.45454545 Z M19.2624919,10.9609739 C19.3470806,10.9610055 19.4285331,10.9610537 19.5070295,10.9611202 L19.9439785,10.9617509 C21.291851,10.9646697 21.6015606,10.9761848 22.3155,11.0092909 C23.1705,11.0490182 23.7560455,11.1837455 24.2673182,11.3823818 C24.8045,11.5844727 25.2898636,11.9005636 25.6923182,12.3099273 C26.1016818,12.7123818 26.4177727,13.1977455 26.6198636,13.7332 C26.8185,14.2444727 26.9532273,14.8300182 26.9929545,15.6850182 C27.0293712,16.4703515 27.0396629,16.7665668 27.0411253,18.4921582 L27.0411253,19.5071509 C27.0396629,21.2327423 27.0293712,21.5289576 26.9929545,22.3142909 C26.9532273,23.1692909 26.8185,23.7548364 26.6198636,24.2661091 C26.2018636,25.3456545 25.3485909,26.1989273 24.2673182,26.6169273 C23.7560455,26.8172909 23.1705,26.9520182 22.3155,26.9900182 C21.5658636,27.0262909 21.2618906,27.0361148 19.7338311,27.038004 L18.2650826,27.038004 C16.7384872,27.0361148 16.4356477,27.0262909 15.6845,26.9900182 C14.8295,26.9520182 14.2439545,26.8172909 13.7326818,26.6169273 C13.1972273,26.4148364 12.7101364,26.0987455 12.3076818,25.6893818 C11.9000455,25.2886545 11.5839545,24.8032909 11.3818636,24.2661091 C11.1832273,23.7548364 11.0467727,23.1692909 11.0070455,22.3142909 C10.9722121,21.5289576 10.960601,21.2327423 10.9589077,19.5071509 L10.9589077,18.4921582 C10.9600622,17.3156186 10.9658273,16.8035617 10.9804199,16.3478998 L10.9867378,16.1672014 C10.9924116,16.0167235 10.9991288,15.863503 11.0070455,15.6850182 C11.0450455,14.8300182 11.1832273,14.2444727 11.3801364,13.7332 C11.5839545,13.1977455 11.9000455,12.7123818 12.3076818,12.3099273 C12.7101364,11.9005636 13.1972273,11.5844727 13.7326818,11.3823818 C14.2439545,11.1837455 14.8277727,11.0490182 15.6845,11.0075636 C16.3998788,10.975897 16.7086288,10.9646217 18.0551418,10.9617429 L18.491673,10.9611192 C18.648524,10.9609872 18.817197,10.9609273 18.9991364,10.9609273 Z M19.9271216,12.4107968 L18.0718788,12.4107968 C16.7509949,12.4132758 16.4568788,12.4233515 15.7501364,12.4550182 C14.9659545,12.4930182 14.5410455,12.6225636 14.2577727,12.7313818 C13.9088636,12.8609273 13.5927727,13.0682 13.3336818,13.3342 C13.0659545,13.5932909 12.8604091,13.9093818 12.7325909,14.2582909 C12.6220455,14.5415636 12.4907727,14.9664727 12.4545,15.7506545 C12.4230492,16.4220598 12.4121668,16.7210699 12.4089975,17.8817852 L12.4080226,18.5009045 C12.4079116,18.6549677 12.4078636,18.8207379 12.4078636,18.9996545 L12.4079015,19.2583496 C12.4079274,19.3414146 12.4079671,19.421373 12.4080226,19.4984045 L12.4089975,20.1175239 C12.4121668,21.2782391 12.4230492,21.5772492 12.4545,22.2486545 C12.4907727,23.0328364 12.6220455,23.4577455 12.7325909,23.7410182 C12.8604091,24.0899273 13.0659545,24.4060182 13.3336818,24.6651091 C13.5927727,24.9328364 13.9088636,25.1383818 14.2577727,25.2679273 C14.5410455,25.3784727 14.9659545,25.5080182 15.7501364,25.5442909 C16.4568788,25.5759576 16.7509949,25.5872328 18.0718788,25.5901116 L19.9271216,25.5901116 C21.2490051,25.5872328 21.5431212,25.5759576 22.2498636,25.5442909 C23.0340455,25.5080182 23.4589545,25.3784727 23.7422273,25.2679273 C24.4435,24.9967455 24.9979545,24.4440182 25.2691364,23.7410182 C25.3796818,23.4577455 25.5092273,23.0328364 25.5455,22.2486545 C25.5771667,21.5419121 25.5884419,21.247796 25.5913207,19.9269121 L25.5919444,19.4984045 C25.5920764,19.3443414 25.5921364,19.1785712 25.5921364,18.9996545 L25.5920899,18.7409595 C25.5920584,18.6578944 25.5920104,18.5779361 25.5919444,18.5009045 L25.5913207,18.072397 C25.5893056,17.1477783 25.5831761,16.7262758 25.5688182,16.3141773 L25.562149,16.1367 C25.557351,16.0168465 25.5518333,15.892003 25.5455,15.7506545 C25.5092273,14.9664727 25.3796818,14.5415636 25.2691364,14.2582909 C25.1395909,13.9093818 24.9340455,13.5932909 24.6680455,13.3342 C24.4072273,13.0682 24.0928636,12.8609273 23.7422273,12.7313818 C23.4589545,12.6225636 23.0340455,12.4930182 22.2498636,12.4550182 C21.5431212,12.4233515 21.2490051,12.4132758 19.9271216,12.4107968 Z M19,14.8713 C21.28,14.8713 23.1299091,16.7194818 23.1299091,18.9994818 C23.1299091,21.2812091 21.28,23.1276636 19,23.1276636 C16.72,23.1276636 14.8700909,21.2812091 14.8700909,18.9994818 C14.8700909,16.7194818 16.72,14.8713 19,14.8713 Z M19,16.3187545 C17.5197273,16.3187545 16.3192727,17.5209364 16.3192727,18.9994818 C16.3192727,20.4797545 17.5197273,21.6802091 19,21.6802091 C20.4802727,21.6802091 21.6807273,20.4797545 21.6807273,18.9994818 C21.6807273,17.5209364 20.4802727,16.3187545 19,16.3187545 Z M23.2927909,13.7439091 C23.8265182,13.7439091 24.2583364,14.1757273 24.2583364,14.7094545 C24.2583364,15.2414545 23.8265182,15.6732727 23.2927909,15.6732727 C22.7590636,15.6732727 22.3272455,15.2414545 22.3272455,14.7094545 C22.3272455,14.1757273 22.7590636,13.7439091 23.2927909,13.7439091 Z" id="Instagram"></path>
                </g>
            </g>
        </g>
    </g>
</svg>