<?xml version="1.0" encoding="UTF-8"?>
<svg width="40px" height="40px" viewBox="0 0 40 40" version="1.1" xmlns="http://www.w3.org/2000/svg" xmlns:xlink="http://www.w3.org/1999/xlink">
    <title>Group 9</title>
    <g id="Final" stroke="none" stroke-width="1" fill="none" fill-rule="evenodd">
        <g id="TalkinFunny-2021-1400" transform="translate(-1248.000000, -232.000000)">
            <g id="Group-9" transform="translate(1248.000000, 232.000000)">
                <circle id="Oval" fill="#FFD21C" cx="20" cy="20" r="20"></circle>
                <g id="Group-12" transform="translate(0.000000, 1.000000)" fill="#000000" fill-rule="nonzero">
                    <g id="2-Icon/Social/Youtube">
                        <path d="M19,34.5454545 C10.4137273,34.5454545 3.45454545,27.5862727 3.45454545,19 C3.45454545,10.4137273 10.4137273,3.45454545 19,3.45454545 C27.5845455,3.45454545 34.5454545,10.4137273 34.5454545,19 C34.5454545,27.5862727 27.5845455,34.5454545 19,34.5454545 M19,0 C8.50681818,0 0,8.50681818 0,19 C0,29.4931818 8.50681818,38 19,38 C29.4931818,38 38,29.4931818 38,19 C38,8.50681818 29.4931818,0 19,0" id="Youtube"></path>
                    </g>
                    <g id="iconmonstr-snapchat-1" transform="translate(8.636364, 9.500000)">
                        <path d="M4.85740038,3.22243363 C4.35739069,4.35234513 4.55489452,6.37676991 4.63489607,7.79252212 C4.0948856,8.09433628 3.40153884,7.56469027 3.00903124,7.56469027 C2.60068999,7.56469027 2.11318055,7.83539823 2.0365124,8.23893805 C1.98151133,8.52982301 2.1106805,8.95353982 3.03736512,9.32261062 C3.39570539,9.46553097 4.24822191,9.63367257 4.44572573,10.1027876 C4.72323111,10.7619027 3.02069813,13.8044248 0.347313005,14.2483186 C0.138142286,14.2827876 -0.0110272704,14.4711062 0.000639622279,14.684646 C0.047307193,15.5043363 1.86900915,15.8254867 2.67652479,15.9515929 C2.75902639,16.0642478 2.82569435,16.5400885 2.93152973,16.9024336 C2.97903065,17.0646903 3.10153303,17.2588938 3.41653913,17.2588938 C3.82738042,17.2588938 4.50989364,16.9394248 5.69825,17.1378319 C6.86327257,17.3337168 7.95829378,19 10.0608345,19 C12.015039,19 13.180895,17.3261504 14.3025834,17.1378319 C14.9517626,17.0293805 15.5092734,17.0638496 16.1326188,17.1865929 C16.5617938,17.2715044 16.9468012,17.3185841 17.0693036,16.8931858 C17.1768057,16.5257965 17.2426403,16.0592035 17.3234752,15.9490708 C18.1234907,15.8238053 19.9535262,15.5034956 19.9993604,14.6838053 C20.0110273,14.4702655 19.8618577,14.2827876 19.652687,14.2474779 C17.0243027,13.8103097 15.2701021,10.7770354 15.5542743,10.1019469 C15.7509447,9.63367257 16.5976278,9.46721239 16.9626349,9.32176991 C17.6409814,9.05190265 17.9809879,8.71982301 17.9734878,8.33561947 C17.964321,7.84380531 17.3776429,7.55039823 16.9459679,7.55039823 C16.5067927,7.55039823 15.8759472,8.075 15.3651039,7.79084071 C15.4451055,6.36331858 15.641776,4.34814159 15.1425996,3.2190708 C14.196748,1.08115044 12.0925405,0 9.98916646,0 C7.89912597,0 5.81075218,1.0660177 4.85740038,3.22243363 Z" id="Path"></path>
                    </g>
                </g>
            </g>
        </g>
    </g>
</svg>