<?xml version="1.0" encoding="UTF-8"?>
<svg width="40px" height="40px" viewBox="0 0 40 40" version="1.1" xmlns="http://www.w3.org/2000/svg" xmlns:xlink="http://www.w3.org/1999/xlink">
    <title>Group</title>
    <g id="Final" stroke="none" stroke-width="1" fill="none" fill-rule="evenodd">
        <g id="TalkinFunny-2021-1400" transform="translate(-1032.000000, -232.000000)">
            <g id="Group" transform="translate(1032.000000, 232.000000)">
                <circle id="Oval" fill="#28ABE2" cx="20" cy="20" r="20"></circle>
                <g id="2-Icon/Social/Twitter-Bird" transform="translate(0.000000, 1.000000)" fill="#000000" fill-rule="nonzero">
                    <path d="M19,0 C29.4931818,0 38,8.50681818 38,19 C38,29.4931818 29.4931818,38 19,38 C8.50681818,38 0,29.4931818 0,19 C0,8.50681818 8.50681818,0 19,0 Z M19,3.45454545 C10.4137273,3.45454545 3.45454545,10.4137273 3.45454545,19 C3.45454545,27.5862727 10.4137273,34.5454545 19,34.5454545 C27.5845455,34.5454545 34.5454545,27.5862727 34.5454545,19 C34.5454545,10.4137273 27.5845455,3.45454545 19,3.45454545 Z M22.5609455,13.0433273 C23.4556727,13.0433273 24.2657636,13.4216 24.8340364,14.0278727 C25.5439455,13.8879636 26.2106727,13.6288727 26.8117636,13.2713273 C26.5803091,13.9985091 26.0863091,14.6099636 25.4420364,14.9951455 C26.0724909,14.9191455 26.6735818,14.7533273 27.2332182,14.5046 C26.8134909,15.1281455 26.2866727,15.6791455 25.6786727,16.1178727 L25.6855818,16.5203273 C25.6855818,20.6364182 22.5540364,25.3829636 16.8246727,25.3829636 C15.0645818,25.3829636 13.4271273,24.8682364 12.0487636,23.9838727 C12.2923091,24.0132364 12.5410364,24.0270545 12.7914909,24.0270545 C14.2510364,24.0270545 15.5948545,23.5296 16.6605818,22.6936 C15.2977636,22.6694182 14.1474,21.7677818 13.7501273,20.5293273 C13.9401273,20.5673273 14.1353091,20.5863273 14.3374,20.5863273 C14.6206727,20.5863273 14.8953091,20.5483273 15.1578545,20.4775091 C13.7328545,20.1907818 12.6584909,18.9316 12.6584909,17.4219636 L12.6584909,17.3839636 C13.0782182,17.6171455 13.5584,17.7570545 14.0696727,17.7743273 C13.2336727,17.2129636 12.6844,16.2612364 12.6844,15.1816909 C12.6844,14.6099636 12.8381273,14.0745091 13.1058545,13.6133273 C14.6414,15.4977818 16.9369455,16.7396909 19.5261273,16.8692364 C19.4725818,16.6395091 19.4449455,16.4028727 19.4449455,16.1593273 C19.4449455,14.4389636 20.8405818,13.0433273 22.5609455,13.0433273 Z" id="Twitter-Bird"></path>
                </g>
            </g>
        </g>
    </g>
</svg>