<?xml version="1.0" encoding="UTF-8"?>
<svg width="40px" height="40px" viewBox="0 0 40 40" version="1.1" xmlns="http://www.w3.org/2000/svg" xmlns:xlink="http://www.w3.org/1999/xlink">
    <title>Group 2</title>
    <g id="Final" stroke="none" stroke-width="1" fill="none" fill-rule="evenodd">
        <g id="TalkinFunny-2021-1400" transform="translate(-1104.000000, -232.000000)">
            <g id="Group-2" transform="translate(1104.000000, 232.000000)">
                <circle id="Oval" fill="#EF4037" cx="20" cy="20" r="20"></circle>
                <g id="2-Icon/Social/Youtube-2" transform="translate(0.000000, 1.000000)" fill="#000000" fill-rule="nonzero">
                    <g id="2-Icon/Social/Youtube">
                        <path d="M19,0 C29.4931818,0 38,8.50681818 38,19 C38,29.4931818 29.4931818,38 19,38 C8.50681818,38 0,29.4931818 0,19 C0,8.50681818 8.50681818,0 19,0 Z M19,3.45454545 C10.4137273,3.45454545 3.45454545,10.4137273 3.45454545,19 C3.45454545,27.5862727 10.4137273,34.5454545 19,34.5454545 C27.5845455,34.5454545 34.5454545,27.5862727 34.5454545,19 C34.5454545,10.4137273 27.5845455,3.45454545 19,3.45454545 Z M19.0109093,12.6579798 C19.0185826,12.6579868 19.030002,12.6580009 19.0449868,12.6580291 L19.2712313,12.6588541 C19.8272197,12.6616746 21.1570505,12.6735204 22.5199933,12.7232732 L23.0312023,12.7437637 C24.3058713,12.7997144 25.5282636,12.8921545 26.0880364,13.0448818 C26.8635818,13.2556091 27.4767636,13.8670636 27.6857636,14.6426091 C28.0059643,15.8162016 28.0517493,18.0426705 28.0580188,18.7755316 L28.0585029,19.1055043 C28.0549227,19.6079986 28.020314,22.1024022 27.6857636,23.3722455 C27.4767636,24.1477909 26.8635818,24.7609727 26.0880364,24.9699727 C25.5282636,25.1172455 24.3058713,25.2063842 23.0312023,25.2603366 L22.5199933,25.2800954 L22.5199933,25.2800954 L22.0118886,25.2964273 C20.8366841,25.3307909 19.7577212,25.339834 19.2712313,25.3422137 L19.1004563,25.3428801 C19.0785216,25.3429412 19.0599715,25.342982 19.0449868,25.3430092 L18.9537538,25.343007 C18.9388087,25.3429786 18.9203073,25.3429361 18.8984297,25.3428724 L18.7280881,25.3421783 C17.5842134,25.3363352 13.1555818,25.2919273 11.9105818,24.9544273 C11.1350364,24.7454273 10.5235818,24.1322455 10.3145818,23.3567 C9.98008652,22.100794 9.94548356,19.5953367 9.94190394,19.0904063 L9.94190394,18.9110756 C9.94548356,18.4085648 9.98008652,15.9140009 10.3145818,14.6426091 C10.5235818,13.8670636 11.1488545,13.2400636 11.9105818,13.0310636 C13.1420818,12.7070636 17.5806608,12.6644321 18.7273869,12.6588226 L18.9536314,12.6580271 C18.983601,12.6579727 18.9993091,12.6579727 18.9993091,12.6579727 Z M17.1943091,16.2835182 L17.1943091,21.7157909 L21.9097636,19.0005182 L17.1943091,16.2835182 Z" id="Youtube"></path>
                    </g>
                </g>
            </g>
        </g>
    </g>
</svg>